PathFileType	4	(X/Y/Z)	./resultDataOpenSim/trcMotMarkerGrf/sub06/qtm-03-08.trc
DataRate	CameraRate	NumFrames	NumMarkers	Units	OrigDataRate	OrigDataStartFrame	OrigNumFrames
250.000000	250.000000	6	24	m	250.000000	1	512
Frame#	Time	L.Toe.Tip			R.Toe.Tip			L.Ankle.Lat			R.Ankle.Lat			L.Ankle.Med			R.Ankle.Med			L.Heel			R.Heel			L.Knee.Lat			R.Knee.Lat			L.Knee.Med			R.Knee.Med			L.Thigh.Upper			R.Thigh.Upper			L.ASIS			R.ASIS			V.Sacral			L.Acromium			R.Acromium			C7			L.Elbow			R.Elbow			L.Wrist.Lat			R.Wrist.Lat
		X1	Y1	Z1	X2	Y2	Z2	X3	Y3	Z3	X4	Y4	Z4	X5	Y5	Z5	X6	Y6	Z6	X7	Y7	Z7	X8	Y8	Z8	X9	Y9	Z9	X10	Y10	Z10	X11	Y11	Z11	X12	Y12	Z12	X13	Y13	Z13	X14	Y14	Z14	X15	Y15	Z15	X16	Y16	Z16	X17	Y17	Z17	X18	Y18	Z18	X19	Y19	Z19	X20	Y20	Z20	X21	Y21	Z21	X22	Y22	Z22	X23	Y23	Z23	X24	Y24	Z24

1	0	-1.6085947	0.032396884	-0.090575201	-1.0802758	0.077995306	0.14843953	-1.7276571	0.075438252	-0.11071228	-1.2124125	0.076769735	0.14816686	-1.7217829	0.087129844	-0.026271537	-1.1891365	0.10522169	0.067074142	NaN	NaN	NaN	-1.2492053	0.04392271	0.072691831	-1.5673263	0.41279643	-0.11460077	-1.2737673	0.46374555	0.16058235	-1.5855051	0.41364314	0.0039602313	-1.276652	0.44449133	0.034524117	-1.4801085	0.79232366	-0.17150538	-1.4706991	0.78500126	0.18044932	-1.3977051	0.83052421	-0.12835269	-1.379637	0.83677431	0.11801376	-1.5699406	0.91428942	0.016007044	-1.4085422	1.3194265	-0.18269781	-1.4332288	1.302103	0.1788545	-1.491117	1.3539629	-0.0055014346	-1.4311741	1.0009643	-0.26400787	NaN	NaN	NaN	-1.2461427	0.83711655	-0.2312511	-1.4566763	0.79635606	0.25923461
2	0.004	-1.6085562	0.032367765	-0.090714265	-1.0635782	0.081033325	0.14934533	-1.7272348	0.076014213	-0.11087927	-1.1958058	0.076913788	0.14983206	-1.7212095	0.087582206	-0.026464667	-1.1735677	0.10593922	0.068439086	NaN	NaN	NaN	-1.2322879	0.04331667	0.074512244	-1.564687	0.41227655	-0.11483546	-1.2678324	0.46184178	0.16011794	-1.5823201	0.41305454	0.0038072438	-1.2707797	0.44220429	0.033952045	-1.4752754	0.79089573	-0.17119421	-1.4648954	0.7832538	0.18053584	-1.3922486	0.82907177	-0.1283603	-1.3732976	0.83501806	0.11813425	-1.5640491	0.91283192	0.01667982	-1.4027969	1.3179311	-0.18231051	-1.4277165	1.3004415	0.17930991	-1.4856103	1.3525553	-0.0048615889	-1.423836	0.9993326	-0.26369798	NaN	NaN	NaN	-1.2377866	0.83682434	-0.2299552	-1.4520909	0.79463137	0.25967227
3	0.008	-1.6085184	0.032328816	-0.090844608	-1.0471939	0.084228867	0.15018495	-1.726787	0.076607542	-0.11105923	-1.1793328	0.077287517	0.15149843	-1.7206107	0.088124619	-0.026654716	-1.1582517	0.1067607	0.069780403	NaN	NaN	NaN	-1.2156527	0.04283028	0.076338878	-1.5619778	0.41175043	-0.11507441	-1.2619535	0.45989586	0.15967509	-1.5791669	0.41240987	0.0036690508	-1.2649314	0.4398974	0.033351289	-1.4704402	0.78944684	-0.17081265	-1.4587932	0.78152892	0.18068163	-1.3867673	0.82762133	-0.12841074	-1.3669136	0.83327457	0.11823852	-1.5580446	0.91136011	0.017304889	-1.3970298	1.3164357	-0.18190465	-1.4221635	1.2987802	0.17977215	-1.4800945	1.3511201	-0.0042978261	-1.4164543	0.99770714	-0.26335927	NaN	NaN	NaN	-1.2294463	0.8365105	-0.22864014	-1.4475026	0.79288061	0.26009872
4	0.012	-1.6084885	0.032279843	-0.090959021	-1.0312792	0.087714485	0.15084374	-1.726266	0.077232346	-0.11126987	-1.1631122	0.077999007	0.15314485	-1.7200946	0.08878606	-0.026836299	-1.1433455	0.10774758	0.071056286	NaN	NaN	NaN	-1.1994715	0.042502194	0.078175339	-1.5591495	0.41120923	-0.11531192	-1.2560335	0.45792959	0.15930953	-1.5759051	0.411723	0.0035293482	-1.2591035	0.43756247	0.032710604	-1.465555	0.7880043	-0.17023064	-1.4522267	0.77983779	0.18091804	-1.3812406	0.82617706	-0.1285179	-1.3604686	0.83153467	0.11833087	-1.5517937	0.90985221	0.017783348	-1.3912183	1.3149344	-0.18147591	-1.4165493	1.2971271	0.18024742	-1.4745077	1.3496544	-0.0038073727	-1.4089497	0.99609097	-0.26288415	NaN	NaN	NaN	-1.2211314	0.8361602	-0.22730998	-1.4429105	0.79109412	0.26051739
5	0.016	-1.6084739	0.032230173	-0.091054915	-1.0158496	0.091591486	0.15120739	-1.725632	0.077902939	-0.11152603	-1.1473352	0.078993396	0.15469368	-1.7197203	0.089517727	-0.027011082	-1.1289691	0.10888744	0.072214049	NaN	NaN	NaN	-1.1838306	0.042295431	0.079987428	-1.556184	0.41065945	-0.11554054	-1.2498226	0.45603592	0.15910786	-1.5723606	0.4110312	0.0033624992	-1.2532847	0.43521346	0.032046365	-1.46057	0.78660782	-0.16945519	-1.4452021	0.77818379	0.18124392	-1.3756573	0.82474485	-0.12862944	-1.3539666	0.82979671	0.11842308	-1.5452292	0.90830125	0.01804904	-1.3853644	1.3134267	-0.18102305	-1.4108831	1.2954978	0.18074107	-1.4688187	1.3481816	-0.0033471542	-1.4013224	0.99447353	-0.26219096	NaN	NaN	NaN	-1.2128626	0.83576718	-0.22598131	-1.4383187	0.78928293	0.26094207
6	0.02	-1.6084744	0.03218851	-0.091138369	-1.0008801	0.095892278	0.15123996	-1.7248598	0.078639183	-0.11183879	-1.1322208	0.080131495	0.15604309	-1.7193115	0.090260782	-0.027195852	-1.1152112	0.11011335	0.073210522	NaN	NaN	NaN	-1.1687286	0.04214883	0.081714855	-1.5530764	0.41011901	-0.11576094	-1.2431475	0.45429174	0.15911869	-1.5685087	0.41033665	0.0031725825	-1.2474548	0.43287641	0.031393816	-1.4554628	0.7852482	-0.16866809	-1.4378085	0.77656496	0.18164145	-1.3700015	0.82332497	-0.1286494	-1.3474031	0.82807508	0.11851462	-1.538476	0.90673422	0.018227902	-1.3794845	1.3119183	-0.18053883	-1.4051837	1.2939023	0.18126397	-1.4630473	1.3467264	-0.0028735913	-1.3936897	0.9928389	-0.26134759	NaN	NaN	NaN	-1.2046534	0.83533416	-0.22465955	-1.4337226	0.78746519	0.26138214
